<mxfile host="65bd71144e">
    <diagram id="MR8X483BsuvkE6r4HwNy" name="Page-1">
        <mxGraphModel dx="1525" dy="357" grid="1" gridSize="10" guides="1" tooltips="0" connect="1" arrows="1" fold="1" page="0" pageScale="1" pageWidth="850" pageHeight="1100" math="0" shadow="0">
            <root>
                <mxCell id="0"/>
                <mxCell id="1" parent="0"/>
                <mxCell id="4" value="" style="edgeStyle=none;html=1;" edge="1" parent="1" source="2" target="3">
                    <mxGeometry relative="1" as="geometry"/>
                </mxCell>
                <mxCell id="2" value="Features" style="rounded=0;whiteSpace=wrap;html=1;" vertex="1" parent="1">
                    <mxGeometry x="120" y="40" width="80" height="60" as="geometry"/>
                </mxCell>
                <mxCell id="6" value="" style="edgeStyle=none;html=1;" edge="1" parent="1" source="3" target="5">
                    <mxGeometry relative="1" as="geometry"/>
                </mxCell>
                <mxCell id="3" value="Qs" style="rounded=0;whiteSpace=wrap;html=1;" vertex="1" parent="1">
                    <mxGeometry x="360" y="40" width="80" height="60" as="geometry"/>
                </mxCell>
                <mxCell id="5" value="As" style="rounded=0;whiteSpace=wrap;html=1;" vertex="1" parent="1">
                    <mxGeometry x="600" y="40" width="80" height="60" as="geometry"/>
                </mxCell>
                <mxCell id="7" value="Favorites" style="rounded=0;whiteSpace=wrap;html=1;" vertex="1" parent="1">
                    <mxGeometry x="120" y="120" width="80" height="60" as="geometry"/>
                </mxCell>
                <mxCell id="8" value="Themes" style="rounded=0;whiteSpace=wrap;html=1;" vertex="1" parent="1">
                    <mxGeometry x="120" y="200" width="80" height="60" as="geometry"/>
                </mxCell>
                <mxCell id="9" value="App" style="rounded=0;whiteSpace=wrap;html=1;" vertex="1" parent="1">
                    <mxGeometry x="-280" y="40" width="80" height="60" as="geometry"/>
                </mxCell>
                <mxCell id="10" value="State" style="rounded=0;whiteSpace=wrap;html=1;" vertex="1" parent="1">
                    <mxGeometry x="-400" y="120" width="80" height="60" as="geometry"/>
                </mxCell>
                <mxCell id="11" value="Actions" style="rounded=0;whiteSpace=wrap;html=1;" vertex="1" parent="1">
                    <mxGeometry x="-160" y="120" width="80" height="60" as="geometry"/>
                </mxCell>
                <mxCell id="13" value="Questions - string&lt;br&gt;Answers - string&lt;br&gt;Starred - bool&lt;br&gt;Completed - bool&lt;br&gt;" style="rounded=0;whiteSpace=wrap;html=1;align=left;verticalAlign=top;" vertex="1" parent="1">
                    <mxGeometry x="-420" y="200" width="120" height="150" as="geometry"/>
                </mxCell>
                <mxCell id="14" value="addStar&lt;br&gt;addCompleted&lt;br&gt;addQuestion&lt;br&gt;Create&lt;br&gt;Read&lt;br&gt;Update&lt;br&gt;Delete" style="rounded=0;whiteSpace=wrap;html=1;align=left;verticalAlign=top;" vertex="1" parent="1">
                    <mxGeometry x="-180" y="200" width="120" height="150" as="geometry"/>
                </mxCell>
            </root>
        </mxGraphModel>
    </diagram>
</mxfile>